<?xml version="1.0" encoding="utf-8"?>
<!-- Generator: Adobe Illustrator 27.5.0, SVG Export Plug-In . SVG Version: 6.00 Build 0)  -->
<svg version="1.1" xmlns="http://www.w3.org/2000/svg" xmlns:xlink="http://www.w3.org/1999/xlink" x="0px" y="0px"
	 viewBox="0 0 900 600" style="enable-background:new 0 0 900 600;" xml:space="preserve">
<g id="Layer_2">
	<rect style="fill:#FFFFFF;" width="900" height="600"/>
	<rect style="opacity:0;fill:#FFFFFF;" width="900" height="600"/>
</g>
<g id="Layer_1">
	<g>
		<g>
			<path style="fill:#FFE6CF;" d="M879.964,348.247c-0.01,0.29-0.03,0.58-0.05,0.87c-0.38,7.51-1.15,14.9-2.23,22.11
				c-5.36,36.25-18.36,68.21-29.56,90.49c-9.14,18.17-17.09,29.92-18.74,32.31c-0.22,0.31-0.33,0.45-0.33,0.45H93.664
				c0,0-15.95-14.11-32.92-31.7c-2.32-4.61-4.71-9.37-7.09-13.96c-0.57-1.11-1.15-2.21-1.72-3.3c-5.7-10.9-11.06-20.5-14.33-24.83
				c-9.83-12.99-14.07-30.92-6.02-44.95c0,0,0-0.01,0.01-0.02c6.11-10.64,17.23-16.54,29.19-21.85c8.84-3.92,18.15-7.52,26.21-12.46
				c0.27-0.18,0.54-0.34,0.8-0.51c1.36-0.85,2.7-1.76,3.99-2.72c0.35-0.26,0.69-0.53,1.04-0.79c19.76-15.43,25.05-41.85,24.07-65.87
				c-0.96-24.02-6.85-48-4.02-71.89c4.31-36.26,30.08-69.67,65.6-85c35.5-15.33,79.51-12.04,111.96,8.36
				c27.5,17.29,48.24,46.26,80.73,52.51c25.57,4.93,51.52-5.93,73.8-18.64c22.26-12.7,43.9-27.86,69.45-32.9
				c25.55-5.04,56.85,3.99,65.7,26.89c7.3,18.87-2.17,41.98,9.56,58.79c7.44,10.66,21.82,17.48,35.38,16.1
				c78.85-8.1,142.33-11.44,193.56,18.82C863.274,270.947,882.334,299.007,879.964,348.247z"/>
		</g>
		<g>
			<g>
				<g>
					<path style="fill:#7178D5;" d="M143.465,494.48H85.951c0,0-14.095-14.119-29.09-31.702
						c-5.162-6.046-10.427-12.499-15.26-18.929c-4.404-5.851-8.455-11.694-11.741-17.177c-3.183-5.303-5.647-10.286-7.04-14.643
						c-2.229-6.946-3.864-14.353-2.456-21.518c1.212-6.148,5.069-12.539,10.724-14.768c0.923-0.375,1.901-0.626,2.918-0.751
						c2.089-0.25,4.349,0.117,6.688,0.931c6.289,2.198,13.125,7.603,18.491,12.577c0.547,0.509,1.087,1.017,1.604,1.518
						c4.67,4.49,7.908,8.299,8.15,8.588c-0.07-0.141-0.133-0.274-0.203-0.415c-6.14-12.656-12.218-26.461-12.069-40.197
						c0.016-1.377,0.086-2.753,0.235-4.13c0.211-1.971,0.563-3.942,1.072-5.898c1.705-6.523,5.757-13.352,12.327-14.838
						c5.022-1.134,9.715,1.017,13.993,5.045c0.336,0.313,0.665,0.641,1.001,0.986c0.954,0.978,1.885,2.049,2.8,3.191
						c0.016,0.008,0.024,0.023,0.031,0.039c0.289,0.368,0.571,0.735,0.86,1.119c3.34,4.435,6.351,9.824,8.987,15.3
						c0.016,0.031,0.031,0.07,0.055,0.109c4.255,8.901,7.517,18.029,9.511,23.7c0.07,0.211,0.149,0.422,0.227,0.634
						c0.54,1.541,0.985,2.792,1.314,3.661c0.149,0.391,0.282,0.712,0.383,0.939c-0.07-0.414-0.141-0.821-0.211-1.236
						c-0.156-0.939-0.313-1.885-0.461-2.839c-0.532-3.387-0.946-6.813-0.97-10.192c-0.016-3.402,0.36-6.758,1.408-10.004
						c0.258-0.79,0.563-1.564,0.923-2.323c0-0.008,0-0.008,0-0.008c0.297-0.634,0.626-1.244,0.993-1.846
						c3.496-5.819,9.855-10.051,16.387-8.768c10.192,2.002,13.743,14.533,15.135,24.819
						C148.447,418.178,143.465,494.48,143.465,494.48z"/>
				</g>
			</g>
			<g>
				<g>
					<path style="fill:#47393D;" d="M113.619,401.055c-0.111-0.23-11.034-23.212-2.667-41.738l0.713,0.322
						c-8.214,18.188,2.549,40.848,2.659,41.075L113.619,401.055z"/>
				</g>
			</g>
			<g>
				<g>
					<path style="fill:#47393D;" d="M41.239,444.132c-0.272-0.341-27.12-34.346-20.008-56.439l0.745,0.24
						c-6.984,21.694,19.605,55.374,19.874,55.712L41.239,444.132z"/>
				</g>
			</g>
			<g>
				<g>
					<path style="fill:#47393D;" d="M53.479,452.396c-0.155-0.182-15.545-18.336-19.253-32.373l0.756-0.2
						c3.662,13.864,18.938,31.886,19.091,32.066L53.479,452.396z"/>
				</g>
			</g>
			<g>
				<g>
					<path style="fill:#47393D;" d="M84.607,421.581c-10.233-18.104-24.149-30.931-24.288-31.058l0.528-0.578
						c0.14,0.128,14.144,13.035,24.441,31.251L84.607,421.581z"/>
				</g>
			</g>
			<g>
				<g>
					<path style="fill:#47393D;" d="M109.009,386.702c-11.557-32.833-23.965-47.061-24.088-47.201l0.585-0.519
						c0.125,0.141,12.634,14.485,24.241,47.461L109.009,386.702z"/>
				</g>
			</g>
			<g>
				<g>
					<path style="fill:#47393D;" d="M92.384,357.254c-4.777-9.788-10.464-15.971-16.448-17.879
						c-4.911-1.568-8.343,0.257-8.377,0.276l-0.374-0.686c0.151-0.082,3.763-2.001,8.989-0.335
						c6.28,2.003,11.971,8.153,16.913,18.28L92.384,357.254z"/>
				</g>
			</g>
		</g>
		<g>
			<g>
				<g>
					<path style="fill:#7178D5;" d="M664.074,423.547c-0.44,3.97-1.73,8.6-3.59,13.59c-2.19,5.89-5.18,12.27-8.49,18.64
						c-0.02,0.03-0.04,0.07-0.06,0.1c-1.43,2.74-2.91,5.47-4.43,8.16c-6.92,12.31-14.37,23.73-18.9,30.44h-128.63
						c-11.72-12.8-35.6-42.04-21.14-53.79c5.64-4.58,25.87,5.62,25.87,5.62s-24.64-39.65-17.89-46.86
						c12.7-13.57,32.75,17.79,33.26,18.6c-0.32-1.18-12.21-44.81,2.22-47.43c22.87-4.16,30.038,30.443,31.94,32.82
						c1.7-7.98,1.77-33.27,14.87-36.62c5.83-1.49,11.65,2.67,14.81,7.95c0.33,0.55,0.63,1.1,0.9,1.67c0.33,0.71,0.6,1.41,0.83,2.12
						c0.95,2.95,1.29,6,1.28,9.08c-0.03,3.07-0.4,6.18-0.88,9.25c-0.14,0.86-0.28,1.72-0.42,2.58c-0.06,0.38-0.13,0.74-0.19,1.12
						c0.09-0.21,0.21-0.5,0.35-0.85c0.3-0.8,0.7-1.93,1.19-3.33c0.07-0.19,0.14-0.38,0.2-0.57c1.81-5.15,4.75-13.43,8.6-21.5
						c0.02-0.05,0.03-0.08,0.05-0.1c2.38-4.97,5.1-9.87,8.12-13.89c0.26-0.34,0.51-0.68,0.78-1.01c0-0.02,0.01-0.03,0.03-0.04
						c0.83-1.04,1.67-2.01,2.53-2.89c0.3-0.32,0.6-0.61,0.9-0.9c3.87-3.66,8.11-5.61,12.65-4.58c5.94,1.35,9.59,7.55,11.14,13.47
						c0.46,1.77,0.77,3.56,0.96,5.35c0.14,1.25,0.2,2.49,0.22,3.74c0.13,12.47-5.36,25-10.91,36.48c-0.06,0.13-0.12,0.25-0.18,0.38
						c0.04-0.04,0.45-0.19,1.15-0.41c3.66-1.15,15.29-4.22,23.82-4.36c9.53-0.15,13.39,2.8,15.25,6.45
						c0.79,1.57,1.22,3.27,1.57,4.91c0.03,0.14,0.05,0.27,0.08,0.4C664.304,419.137,664.334,421.227,664.074,423.547z"/>
				</g>
			</g>
			<g>
				<g>
					<path style="fill:#47393D;" d="M647.658,464.152c0.227-0.324,22.544-32.616,14.893-52.229l-0.658,0.259
						c7.513,19.259-14.59,51.243-14.814,51.563L647.658,464.152z"/>
				</g>
			</g>
			<g>
				<g>
					<path style="fill:#47393D;" d="M633.226,472.013c0.14-0.165,14.049-16.638,17.401-29.375l-0.683-0.182
						c-3.31,12.58-17.116,28.933-17.255,29.096L633.226,472.013z"/>
				</g>
			</g>
			<g>
				<g>
					<path style="fill:#47393D;" d="M607.901,431.189c9.249-16.428,21.825-28.066,21.951-28.182l-0.477-0.524
						c-0.127,0.116-12.784,11.827-22.089,28.357L607.901,431.189z"/>
				</g>
			</g>
			<g>
				<g>
					<path style="fill:#47393D;" d="M600.872,372.819c4.317-8.882,9.457-14.492,14.865-16.223c4.438-1.422,7.54,0.234,7.571,0.25
						l0.338-0.622c-0.136-0.075-3.401-1.816-8.124-0.304c-5.676,1.817-10.819,7.398-15.286,16.587L600.872,372.819z"/>
				</g>
			</g>
		</g>
		<g>
			<g>
				<g>
					<g>
						<g>
							<g>
								<rect x="224.949" y="142.256" style="fill:#FFFFFF;" width="194.06" height="329.085"/>
							</g>
						</g>
					</g>
					<g>
						<g>
							<g>
								<path style="fill:#47393D;" d="M419.009,127.534v14.723h-194.06v-14.723c0-5,4.055-9.052,9.055-9.052h175.954
									C414.957,118.482,419.009,122.534,419.009,127.534z"/>
							</g>
						</g>
					</g>
					<g>
						<g>
							<g>
								<path style="fill:#47393D;" d="M224.949,471.342h194.06v14.466c0,5-4.052,9.055-9.052,9.055H234.003
									c-5,0-9.055-4.055-9.055-9.055V471.342z"/>
							</g>
						</g>
					</g>
					<g>
						<g>
							<g>
								<rect x="224.949" y="142.257" style="fill:#47393D;" width="0.998" height="329.202"/>
							</g>
						</g>
					</g>
				</g>
				<g>
					<g>
						<g>
							<g>
								<path style="fill:#E8DFDE;" d="M346.428,130.501h-48.897c-0.482,0-0.873-0.391-0.873-0.873c0-0.482,0.391-0.873,0.873-0.873
									h48.897c0.482,0,0.873,0.391,0.873,0.873C347.301,130.111,346.91,130.501,346.428,130.501z"/>
							</g>
						</g>
					</g>
				</g>
			</g>
			<g>
				<g>
					<g>
						<g>
							<rect x="246.971" y="334.792" style="fill:#B3C0C6;" width="78.194" height="76.749"/>
						</g>
					</g>
					<g>
						<g>
							<rect x="332.694" y="334.792" style="fill:#D5DCE0;" width="64.293" height="11.939"/>
						</g>
					</g>
					<g>
						<g>
							<rect x="332.694" y="352.952" style="fill:#D5DCE0;" width="64.293" height="11.939"/>
						</g>
					</g>
					<g>
						<g>
							<rect x="332.694" y="370.766" style="fill:#D5DCE0;" width="64.293" height="11.939"/>
						</g>
					</g>
				</g>
				<g>
					<g>
						<rect x="246.971" y="422.595" style="fill:#D5DCE0;" width="150.016" height="16.025"/>
					</g>
				</g>
				<g>
					<g>
						<rect x="246.971" y="446.094" style="fill:#B3C0C6;" width="150.016" height="6.929"/>
					</g>
				</g>
				<g>
					<g>
						<rect x="246.971" y="292.974" style="fill:#C5D1D8;" width="150.016" height="16.025"/>
					</g>
				</g>
				<g>
					<g>
						<rect x="246.971" y="316.473" style="fill:#B3C0C6;" width="150.016" height="6.929"/>
					</g>
				</g>
				<g>
					<g>
						<rect x="246.971" y="202.138" style="fill:#B3C0C6;" width="78.194" height="76.749"/>
					</g>
				</g>
				<g>
					<g>
						<rect x="332.694" y="202.138" style="fill:#D5DCE0;" width="64.293" height="11.939"/>
					</g>
				</g>
				<g>
					<g>
						<rect x="332.694" y="220.299" style="fill:#D5DCE0;" width="64.293" height="11.939"/>
					</g>
				</g>
				<g>
					<g>
						<rect x="332.694" y="238.113" style="fill:#D5DCE0;" width="64.293" height="11.939"/>
					</g>
				</g>
				<g>
					<g>
						<rect x="246.971" y="160.321" style="fill:#D5DCE0;" width="150.016" height="16.025"/>
					</g>
				</g>
				<g>
					<g>
						<rect x="246.971" y="183.82" style="fill:#B3C0C6;" width="150.016" height="6.929"/>
					</g>
				</g>
			</g>
		</g>
		<g>
			<path style="fill:#47393D;" d="M498.897,493.181c-17.607-15.405-24.087-36.446-24.15-36.657l0.958-0.288
				c0.063,0.208,6.467,20.982,23.85,36.193L498.897,493.181z"/>
		</g>
		<g>
			<g>
				<path style="fill:#FFE6CF;" d="M78.199,313.44c7.51-10.024,9.019-24.217,3.783-35.595c-1.476-3.207-3.533-6.281-6.534-8.142
					c-3-1.861-7.085-2.266-10.014-0.294c-3.131,2.108-4.186,6.211-4.47,9.975s-0.074,7.694-1.62,11.137
					c-4.189,9.326-18.569,10.174-23.037,19.37c-2.204,4.537-0.435,11.186,4.259,13.809C49.44,328.661,70.689,323.465,78.199,313.44z
					"/>
			</g>
		</g>
		<g>
			<g>
				<path style="fill:#FFE6CF;" d="M606.58,199.557c10.007,7.533,24.196,9.073,35.587,3.863c3.211-1.469,6.289-3.519,8.157-6.515
					c1.868-2.996,2.282-7.08,0.317-10.013c-2.1-3.136-6.202-4.2-9.965-4.493c-3.763-0.293-7.694-0.091-11.134-1.645
					c-9.317-4.211-10.132-18.592-19.318-23.08c-4.532-2.214-11.185-0.46-13.819,4.227
					C591.425,170.764,596.573,192.023,606.58,199.557z"/>
			</g>
		</g>
		<g>
			<g>
				<g>
					<path style="fill:#47393D;" d="M754.836,248.61l-0.058-0.78c0.136-0.01,13.79-0.941,29.979,4.369
						c14.95,4.904,35.191,16.281,46.723,42.632l-0.717,0.313c-11.416-26.086-31.452-37.348-46.25-42.202
						C768.47,247.68,754.97,248.6,754.836,248.61z"/>
				</g>
			</g>
			<g>
				<g>
					<path style="fill:#47393D;" d="M804.091,253.627l0.357-0.696c0.293,0.15,29.432,15.455,41.337,52.442l-0.745,0.24
						C833.238,268.946,804.381,253.776,804.091,253.627z"/>
				</g>
			</g>
		</g>
		<g>
			<g>
				<g>
					<path style="fill:#47393D;" d="M205.67,132.587c-37.376-2.078-55.485,24.912-64.105,42.888l-0.713-0.325
						c8.717-18.177,27.07-45.518,64.937-43.415L205.67,132.587z"/>
				</g>
			</g>
			<g>
				<g>
					<path style="fill:#47393D;" d="M206.954,126.067c-20.169-5.313-38.363,7.981-38.544,8.116l-0.421-0.68
						c0.184-0.138,18.692-13.674,39.23-8.263L206.954,126.067z"/>
				</g>
			</g>
		</g>
		<g>
			<g>
				<g>
					<path style="fill:#47393D;" d="M508.429,119.211c34.183-15.259,60.72,3.507,75.179,17.232l0.55-0.557
						c-14.622-13.878-41.511-32.885-76.144-17.427L508.429,119.211z"/>
				</g>
			</g>
			<g>
				<g>
					<path style="fill:#47393D;" d="M504.907,113.577c16.952-12.151,38.689-6.212,38.906-6.151l0.151-0.785
						c-0.221-0.063-22.337-6.116-39.599,6.257L504.907,113.577z"/>
				</g>
			</g>
		</g>
		<g>
			<g>
				<g>
					<g>
						<g>
							<polygon style="fill:#FFB486;" points="184.392,483.914 181.948,464.165 196.427,464.165 197.063,483.914 							"/>
						</g>
					</g>
				</g>
				<g>
					<g>
						<path style="fill:#FCA377;" d="M196.788,475.379c-5.47,1.431-13.596-1.172-13.596-1.172l-0.575-4.688l14.02,1.18
							L196.788,475.379z"/>
					</g>
				</g>
			</g>
			<g>
				<g>
					<g>
						<g>
							<polygon style="fill:#FFB486;" points="115.337,483.914 116.674,464.165 131.153,464.165 128.008,483.914 							"/>
						</g>
					</g>
				</g>
				<g>
					<g>
						<path style="fill:#FCA377;" d="M130.477,468.384l-0.991,6.231c-6.685,0.393-11.434-2.079-13.294-3.267l0.408-6.065
							L130.477,468.384z"/>
					</g>
				</g>
			</g>
			<g>
				<g>
					<path style="fill:#5555C9;" d="M215.193,471.532c0,0-9.67-121.442-35.782-180.48l-24.274,1.217
						c0,0,2.072,85.505,20.284,179.263C175.42,471.532,198.203,476.938,215.193,471.532z"/>
				</g>
			</g>
			<g>
				<g>
					<path style="fill:#5555C9;" d="M146.407,471.532c0,0-23.889,3.862-37.516-5.406c0,0,7.256-131.674,29.478-174.849h26.127
						C164.496,291.277,163.643,362.254,146.407,471.532z"/>
				</g>
			</g>
			<g>
				<g>
					<g>
						<path style="fill:#47393D;" d="M138.951,228.768c0.643-2.299,1.853-5.233,1.853-5.233c-0.424,2.201-0.431,4.635-0.386,5.951
							c5.672,2.601,17.521,5.989,35.919,1.49c-0.234-1.891-0.34-3.683-0.34-3.683c0.325,1.202,0.794,2.412,1.248,3.456
							c0.658-0.166,1.316-0.34,1.989-0.529c-0.552-2.337-0.786-6.397-0.786-6.397c0.643,2.443,1.913,4.93,2.45,5.921
							c1.119-0.34,2.261-0.703,3.426-1.096c0,0-3.668-5.596-6.072-20.16c-1.981-11.971-8.121-17.627-17.453-17.377
							c-19.192,0.514-24.312,36.131-24.312,36.131S137.302,227.891,138.951,228.768z"/>
					</g>
				</g>
			</g>
			<g>
				<g>
					<g>
						<path style="fill:#C16A4C;" d="M205.297,271.008c0,0-7.69-34.623-38.272-36.413c-47.07-2.755-61.537,27.861-61.537,27.861
							L205.297,271.008z"/>
					</g>
				</g>
			</g>
			<g>
				<g>
					<path style="fill:#FFB486;" d="M156.567,199.889c5.196-2.969,14.32-3.096,16.406,3.934c1.925,6.488,1.618,26.056-7.067,25.685
						c-9.079-0.388-11.943-7.289-12.753-11.506C152.862,216.486,151.371,202.858,156.567,199.889z"/>
				</g>
			</g>
			<g>
				<g>
					<path style="fill:#FFB486;" d="M153.372,217.656c0,0-4.057,1.248-4.814-2.399c-0.683-3.29,3.223-4.572,4.481-3.131
						L153.372,217.656z"/>
				</g>
			</g>
			<g>
				<g>
					<g>
						<g>
							<path style="fill:#FFB486;" d="M211.717,288.469c9.657-7.948,24.102-30.039,24.102-30.039
								c1.014-0.676,5.311-3.637,6.816-6.662c0.665-1.346,0.325-2.465-0.802-2.42c0.151-1.263-0.423-1.754-1.603-1.49
								c-0.076-1.195-0.703-1.422-1.52-1.21c-0.363-2.813-6.095,3.108-6.465,4c-0.25,0.598-1.015,2.853-1.204,3.534
								c-0.249,0.9-27.69,20.916-27.69,20.916L211.717,288.469z"/>
						</g>
					</g>
				</g>
			</g>
			<g>
				<g>
					<g>
						<path style="fill:#F75C5C;" d="M239.847,257.294c1.395-0.698,1.96-2.395,1.262-3.79l-10.271-20.521
							c-0.698-1.395-2.395-1.96-3.79-1.261c-1.395,0.698-1.96,2.395-1.261,3.79l10.271,20.521
							C236.755,257.427,238.452,257.992,239.847,257.294z"/>
					</g>
				</g>
				<g>
					<g>
						
							<ellipse transform="matrix(0.6976 -0.7165 0.7165 0.6976 -89.1594 223.1602)" style="fill:#F75C5C;" cx="219.778" cy="217.199" rx="24.713" ry="24.713"/>
					</g>
				</g>
				<g>
					<g>
						<g>
							<path style="fill:#FFFFFF;" d="M201.129,226.533c-2.493-4.981-2.897-10.635-1.138-15.921
								c1.759-5.285,5.471-9.569,10.453-12.063c4.98-2.493,10.634-2.898,15.921-1.138c5.285,1.759,9.569,5.472,12.062,10.453
								c2.493,4.981,2.898,10.635,1.139,15.921c-1.76,5.285-5.471,9.569-10.453,12.063c-2.988,1.495-6.166,2.204-9.3,2.204
								C212.161,238.052,204.78,233.828,201.129,226.533z M210.782,199.227c-4.801,2.403-8.379,6.531-10.074,11.625
								c-1.695,5.094-1.306,10.543,1.097,15.344c4.96,9.91,17.058,13.938,26.969,8.977c4.801-2.403,8.378-6.531,10.073-11.625
								c1.696-5.094,1.306-10.543-1.097-15.344c-2.403-4.801-6.531-8.378-11.625-10.074c-2.085-0.694-4.231-1.039-6.366-1.039
								C216.679,197.091,213.617,197.808,210.782,199.227z"/>
						</g>
					</g>
				</g>
				<g>
					<g>
						<g>
							<polygon style="fill:#FFFFFF;" points="220.899,224.523 224.969,222.486 217.61,201.908 208.836,206.3 							"/>
						</g>
					</g>
					<g>
						<g>
							
								<rect x="223.088" y="226.195" transform="matrix(-0.8942 0.4476 -0.4476 -0.8942 529.1055 331.6928)" style="fill:#FFFFFF;" width="4.552" height="4.328"/>
						</g>
					</g>
				</g>
			</g>
			<g>
				<g>
					<g>
						<g>
							<path style="fill:#FFB486;" d="M242.643,249.921c0.417,0.356,0.426,0.998,0.015,1.361c-0.739,0.652-1.743,1.233-2.199,1.069
								c-0.805-0.29,0.172-1.458,0.91-2.325C241.692,249.644,242.262,249.597,242.643,249.921L242.643,249.921z"/>
						</g>
					</g>
					<g>
						<g>
							<path style="fill:#FFB486;" d="M241.232,249.31c0.228,0.359,0.183,0.828-0.114,1.133c-0.74,0.76-2.051,1.751-2.745,1.31
								c-0.441-0.281,0.491-1.567,1.304-2.59C240.071,248.667,240.893,248.775,241.232,249.31L241.232,249.31z"/>
						</g>
					</g>
					<g>
						<g>
							<path style="fill:#FFB486;" d="M239.371,247.771c0.407,0.288,0.509,0.849,0.225,1.259c-0.611,0.88-1.654,1.935-2.808,1.859
								c-0.989-0.065,0.382-1.885,1.231-3.001c0.297-0.391,0.848-0.474,1.249-0.19L239.371,247.771z"/>
						</g>
					</g>
					<g>
						<g>
							<path style="fill:#FFB486;" d="M238.377,246.161c0.489,0.393,0.529,1.121,0.087,1.565c-0.809,0.812-1.959,1.63-2.641,1.514
								c-0.73-0.124,0.252-1.673,1.011-2.833C237.176,245.886,237.89,245.77,238.377,246.161L238.377,246.161z"/>
						</g>
					</g>
				</g>
				<g>
					<g>
						<path style="fill:#FFB486;" d="M231.634,252.759c0.303-2.988,2.096-6.257,2.826-5.781c0.73,0.476-0.47,3.116-0.06,4.039
							c0.54,1.214,0.99,2.342,0.02,4.827L231.634,252.759z"/>
					</g>
				</g>
			</g>
			<g>
				<g>
					<path style="fill:#47393D;" d="M113.639,468.258l-0.781-0.052c0.087-1.316,8.932-132.164,31.394-174.68l0.691,0.365
						C122.559,336.261,113.726,466.943,113.639,468.258z"/>
				</g>
			</g>
			<g>
				<g>
					<g>
						<path style="fill:#C16A4C;" d="M132.687,270.191l-8.238,47.109c21.497,6.458,45.756,0.656,65.594-12.507l-8.216-46.46
							l-15.288-23.281c0,0-7.455,8.507-15.671-0.193l-21.399,8.975L132.687,270.191z"/>
					</g>
				</g>
			</g>
			<g>
				<g>
					<path style="fill:#C16A4C;" d="M124.079,311.219c0,0-14.303-20.948,7.835-35.879l12.681-35.665l0.001-0.239
						c-14.851-0.076-30.812,9.011-39.455,21.745c-14.453,21.294-13,46.755,11.198,59.884L124.079,311.219z"/>
				</g>
			</g>
			<g>
				<g>
					<path style="fill:#C16A4C;" d="M234.886,264.271l-7.208-9.267l-21.071,14.639c0,0-10.863-22.083-19.802-27.794l-5.722,38.641
						c0,0,10.287,15.801,25.485,13.901C220.985,292.588,234.886,264.271,234.886,264.271z"/>
				</g>
			</g>
			<g>
				<g>
					<path style="fill:#47393D;" d="M160.128,366.154l-0.779-0.073c1.261-13.463,2.311-26.63,3.119-39.133l0.781,0.051
						C162.44,339.509,161.389,352.684,160.128,366.154z"/>
				</g>
			</g>
			<g>
				<g>
					<path style="fill:#47393D;" d="M181.216,471.805c-0.162-0.777-16.275-78.082-20.857-117.035l0.777-0.092
						c4.579,38.918,20.684,116.19,20.846,116.966L181.216,471.805z"/>
				</g>
			</g>
			<g>
				<g>
					<g>
						
							<rect x="185.557" y="257.973" transform="matrix(0.9848 -0.1738 0.1738 0.9848 -46.1136 36.6079)" style="fill:#47393D;" width="0.756" height="47.181"/>
					</g>
				</g>
			</g>
			<g>
				<g>
					<path style="fill:#47393D;" d="M150.059,211.399c0,0,1.452-0.839,2.896,0.696c0,0,0.384-3.069,1.42-5.005l0.652,3.425
						c1.051,0.166,4.399,0.715,8.069,0.786c1.034,0.02,3.942,0,3.942,0l0.663-5.724l1.24,5.611c0.855-0.068,1.519-0.159,2.199-0.25
						l0.485-3.365l0.938,3.168c0.915-0.151,1.55-0.295,1.86-0.363c0.189-2.405,0.265-8.893-4.023-12.651
						c-4.923-4.31-15.336-1.943-17.748,3.221C150.24,206.113,150.059,211.399,150.059,211.399z"/>
				</g>
			</g>
			<g>
				<g>
					<path style="fill:#FFB486;" d="M159.781,238.817c4.312,0,6.872-3.765,6.872-3.765l-1.08-12.469l-11.858-7.047l-2.993,19.323
						C150.723,234.859,154.435,238.817,159.781,238.817z"/>
				</g>
			</g>
			<g>
				<g>
					<g>
						<g>
							<path style="fill:#47393D;" d="M165.503,230.208l0.032-0.756c-5.397-0.231-8.851-4.357-10.799-7.777l-0.657,0.374
								C156.122,225.635,159.761,229.962,165.503,230.208z"/>
						</g>
					</g>
				</g>
			</g>
			<g>
				<g>
					<path style="fill:#47393D;" d="M121.629,321.409c-10.428-5.657-17.232-13.959-19.677-24.008
						c-2.79-11.463,0.173-24.404,8.342-36.439l0.647,0.439c-8.043,11.85-10.965,24.57-8.229,35.815
						c2.392,9.828,9.062,17.956,19.29,23.506L121.629,321.409z"/>
				</g>
			</g>
			<g>
				<g>
					<g>
						<path style="fill:#47393D;" d="M180.276,494.48h37.666c0.045-0.446,0.136-1.822-0.151-3.267
							c-0.015-0.03-36.986,0.212-36.986,0.212L180.276,494.48z"/>
					</g>
				</g>
				<g>
					<g>
						<path style="fill:#F75C5C;" d="M180.805,491.425l36.97-0.242c-0.355-3.826-5.157-5.626-9.641-6.768
							c-0.303-0.076-0.597-0.144-0.892-0.219c-0.643-0.151-1.27-0.287-1.868-0.424c-0.31-0.068-0.613-0.136-0.9-0.197
							c-1.55-0.348-2.836-0.643-3.577-0.991c-0.665-0.318-1.475-0.779-2.178-1.202c-0.242-0.144-0.461-0.287-0.665-0.416
							c-0.665-0.416-1.142-0.734-1.142-0.734c-2.42,0.794-6.065,3.07-14.065-0.552l-0.242,1.391l-0.136,0.786L180.805,491.425z"/>
					</g>
				</g>
				<g>
					<g>
						<g>
							<g>
								<path style="fill:#47393D;" d="M207.242,484.196c0.559,1.293,0.62,2.684,0.62,2.7l0.756-0.03
									c-0.008-0.076-0.053-1.21-0.484-2.45C207.832,484.34,207.537,484.272,207.242,484.196z"/>
							</g>
						</g>
					</g>
					<g>
						<g>
							<g>
								<path style="fill:#47393D;" d="M204.474,483.576c0.62,1.339,0.681,2.821,0.681,2.836l0.756-0.023
									c0-0.083-0.053-1.316-0.537-2.617C205.064,483.704,204.761,483.636,204.474,483.576z"/>
							</g>
						</g>
					</g>
				</g>
				<g>
					<g>
						<g>
							<path style="fill:#47393D;" d="M182.469,481.859c3.297,1.641,6.118,2.208,8.454,2.208c4.318,0,6.957-1.951,7.796-2.685
								c-0.242-0.144-0.461-0.287-0.665-0.416c-1.406,1.202-6.556,4.635-15.449,0.106L182.469,481.859z"/>
						</g>
					</g>
				</g>
			</g>
			<g>
				<g>
					<g>
						<path style="fill:#47393D;" d="M112.315,494.48h37.666c0.045-0.446,0.136-1.822-0.151-3.267
							c-0.015-0.03-36.986,0.212-36.986,0.212L112.315,494.48z"/>
					</g>
				</g>
				<g>
					<g>
						<path style="fill:#F75C5C;" d="M112.844,491.425l36.97-0.242c-0.355-3.826-5.157-5.626-9.642-6.768
							c-0.302-0.076-0.597-0.144-0.892-0.219c-0.643-0.151-1.27-0.287-1.868-0.424c-0.31-0.068-0.612-0.136-0.9-0.197
							c-1.55-0.348-2.836-0.643-3.577-0.991c-0.665-0.318-1.474-0.779-2.178-1.202c-0.242-0.144-0.461-0.287-0.665-0.416
							c-0.665-0.416-1.142-0.734-1.142-0.734c-2.42,0.794-6.065,3.07-14.065-0.552l-0.242,1.391l-0.136,0.786L112.844,491.425z"/>
					</g>
				</g>
				<g>
					<g>
						<g>
							<g>
								<path style="fill:#47393D;" d="M139.281,484.196c0.56,1.293,0.62,2.684,0.62,2.7l0.756-0.03
									c-0.008-0.076-0.053-1.21-0.484-2.45C139.871,484.34,139.576,484.272,139.281,484.196z"/>
							</g>
						</g>
					</g>
					<g>
						<g>
							<g>
								<path style="fill:#47393D;" d="M136.513,483.576c0.62,1.339,0.681,2.821,0.681,2.836l0.756-0.023
									c0-0.083-0.053-1.316-0.537-2.617C137.103,483.704,136.801,483.636,136.513,483.576z"/>
							</g>
						</g>
					</g>
				</g>
				<g>
					<g>
						<g>
							<path style="fill:#47393D;" d="M114.508,481.859c3.297,1.641,6.118,2.208,8.454,2.208c4.318,0,6.957-1.951,7.796-2.685
								c-0.242-0.144-0.461-0.287-0.665-0.416c-1.407,1.202-6.556,4.635-15.449,0.106L114.508,481.859z"/>
						</g>
					</g>
				</g>
			</g>
			<g>
				<g>
					<path style="fill:#47393D;" d="M122.869,285.118l-0.676-0.393c2.098-3.605,5.296-6.871,9.504-9.709l0.437,0.649
						C128.024,278.435,124.907,281.616,122.869,285.118z"/>
				</g>
			</g>
			<g>
				<g>
					
						<rect x="123.779" y="276.056" transform="matrix(0.1914 -0.9815 0.9815 0.1914 -164.9139 352.716)" style="fill:#47393D;" width="15.666" height="0.782"/>
				</g>
			</g>
			<g>
				<g>
					
						<rect x="208.363" y="268.267" transform="matrix(0.7934 -0.6087 0.6087 0.7934 -119.3667 185.6307)" style="fill:#47393D;" width="10.825" height="0.782"/>
				</g>
			</g>
			<g>
				<g>
					<g>
						<path style="fill:#FFBA8C;" d="M122.725,312.944c0.725,0.581,2.99,2.526,3.906,2.683c0.849,0.145,5.54,0.341,5.408,1.332
							c-0.138,1.039-3.338,0.232-3.307,1.069c0.019,0.516,6.265,2.202,5.637,3.295c-0.413,0.718-4.056-0.818-4.13-0.367
							c-0.068,0.419,4.815,1.375,4.258,2.468c-0.584,1.146-5.285-1.743-5.524-1.199c-0.118,0.269,5.588,2.32,5.109,3.201
							c-0.641,1.178-5.023-1.724-5.361-1.211c-0.166,0.252,1.566,1,2.539,1.577c0.54,0.32,0.369,0.807-0.057,0.788
							c-4.409-0.197-9.942-5.561-10.648-5.813c-1.05-0.375-2.07-0.766-3.061-1.171L122.725,312.944z"/>
					</g>
				</g>
			</g>
		</g>
		<g>
			<g>
				<g>
					<g>
						<g>
							<polygon style="fill:#FFB486;" points="530.75,483.914 532.438,464.165 517.959,464.165 518.836,483.914 							"/>
						</g>
					</g>
				</g>
				<g>
					<g>
						<path style="fill:#FCA377;" d="M532.393,464.478l-0.962,11.116c-5.101,0.325-10.026-0.302-13.012-0.817l-0.519-11.479
							L532.393,464.478z"/>
					</g>
				</g>
			</g>
			<g>
				<g>
					<g>
						<path style="fill:#47393D;" d="M534.567,494.48h-37.666c-0.045-0.446-0.136-1.822,0.151-3.267
							c0.015-0.03,36.986,0.212,36.986,0.212L534.567,494.48z"/>
					</g>
				</g>
				<g>
					<g>
						<path style="fill:#F75C5C;" d="M534.037,491.425l-36.97-0.242c0.355-3.826,5.157-5.626,9.642-6.768
							c0.302-0.076,0.597-0.144,0.892-0.219c0.643-0.151,1.27-0.287,1.868-0.424c0.31-0.068,0.612-0.136,0.9-0.197
							c1.55-0.348,2.836-0.643,3.577-0.991c0.665-0.318,1.475-0.779,2.178-1.202c0.242-0.144,0.461-0.287,0.665-0.416
							c0.665-0.416,1.142-0.734,1.142-0.734c2.42,0.794,6.065,3.07,14.065-0.552l0.242,1.391l0.136,0.786L534.037,491.425z"/>
					</g>
				</g>
				<g>
					<g>
						<g>
							<g>
								<path style="fill:#47393D;" d="M507.601,484.196c-0.56,1.293-0.62,2.684-0.62,2.7l-0.756-0.03
									c0.008-0.076,0.053-1.21,0.484-2.45C507.011,484.34,507.306,484.272,507.601,484.196z"/>
							</g>
						</g>
					</g>
					<g>
						<g>
							<g>
								<path style="fill:#47393D;" d="M510.368,483.576c-0.62,1.339-0.681,2.821-0.681,2.836l-0.756-0.023
									c0-0.083,0.053-1.316,0.537-2.617C509.779,483.704,510.081,483.636,510.368,483.576z"/>
							</g>
						</g>
					</g>
				</g>
				<g>
					<g>
						<g>
							<path style="fill:#47393D;" d="M532.374,481.859c-3.297,1.641-6.118,2.208-8.454,2.208c-4.318,0-6.957-1.951-7.796-2.685
								c0.242-0.144,0.461-0.287,0.665-0.416c1.406,1.202,6.556,4.635,15.449,0.106L532.374,481.859z"/>
						</g>
					</g>
				</g>
			</g>
			<g>
				<g>
					<g>
						<g>
							<polygon style="fill:#FFB486;" points="445.944,483.914 452.169,464.165 437.69,464.165 433.273,483.914 							"/>
						</g>
					</g>
				</g>
				<g>
					<g>
						<path style="fill:#FCA377;" d="M452.2,463.997l-3.433,10.859c-6.518,1.165-11.54,0.06-13.324-0.439l2.465-11.033h5.172
							L452.2,463.997z"/>
					</g>
				</g>
			</g>
			<g>
				<g>
					<path style="fill:#FFFFFF;" d="M522.532,236.166c0,0,39.078,7.164,35.56,45.816c-1.463,16.068-9.833,22.245-9.833,22.245
						l-8.234-8.653l-15.631,5.257L522.532,236.166z"/>
				</g>
			</g>
			<g>
				<g>
					<polygon style="fill:#FFB587;" points="500.829,239.898 503.571,218.88 515.997,218.88 518.929,239.898 					"/>
				</g>
			</g>
			<g>
				<g>
					<path style="fill:#FFB587;" d="M507.18,226.997c7.855-2.208,17.129-13.049,13.664-25.575
						c-2.748-9.937-19.722-7.196-24.253,1.333C489.564,215.982,489.128,232.071,507.18,226.997z"/>
				</g>
			</g>
			<g>
				<g>
					<path style="fill:#5555C9;" d="M570.378,295.914l-3.658,12.171c-1.074,3.572-4.929,5.532-8.505,4.324l-178.121-60.174
						c-3.407-1.151-5.297-4.762-4.275-8.165c1.023-3.403,4.591-5.374,8.068-4.455l181.779,48.003
						C569.315,288.581,571.451,292.342,570.378,295.914z"/>
				</g>
			</g>
			<g>
				<g>
					
						<ellipse transform="matrix(0.2369 -0.9715 0.9715 0.2369 38.2285 507.5126)" style="fill:#FFFFFF;" cx="342.197" cy="229.42" rx="71.096" ry="71.096"/>
				</g>
			</g>
			<g>
				<g>
					<g>
						<path style="fill:#FFBA8C;" d="M435.5,260.927c-0.756-0.541-3.24-2.196-3.638-3.036c-0.369-0.778-1.824-5.242-2.743-4.848
							c-0.963,0.413,0.678,3.276-0.136,3.473c-0.502,0.121-3.812-5.438-4.695-4.537c-0.58,0.591,1.883,3.685,1.468,3.877
							c-0.385,0.179-2.624-4.265-3.526-3.433c-0.946,0.872,3.105,4.618,2.646,4.995c-0.227,0.187-3.742-4.754-4.462-4.055
							c-0.962,0.935,3.016,4.371,2.614,4.835c-0.197,0.228-1.386-1.237-2.204-2.019c-0.454-0.433-0.876-0.138-0.743,0.267
							c1.38,4.193,8.038,8.071,8.472,8.683c0.645,0.91,1.297,1.787,1.954,2.631L435.5,260.927z"/>
					</g>
				</g>
			</g>
			<g>
				<g>
					<path style="fill:#FFFFFF;" d="M342.133,292.651c-2.865,0-5.745-0.195-8.623-0.595c-2.942-0.405-5.865-1.019-8.689-1.826
						c-30.107-8.557-49.564-38.431-45.256-69.489c0.66-4.778,1.869-9.494,3.596-14.016c1.991-5.19,4.674-10.11,7.973-14.624
						c2.328-3.184,4.987-6.177,7.902-8.894c4.045-3.777,8.563-7.005,13.427-9.594c11.815-6.316,25.105-8.679,38.432-6.831
						c7.436,1.032,14.528,3.331,21.077,6.832c4.864,2.596,9.371,5.824,13.396,9.595c2.907,2.718,5.555,5.71,7.871,8.894
						c3.29,4.49,5.978,9.41,7.988,14.622c1.897,4.914,3.171,10.07,3.786,15.324c0.308,2.631,0.448,5.32,0.417,7.99
						c-0.024,2.675-0.225,5.392-0.598,8.074c-0.343,2.449-0.825,4.89-1.432,7.255c-0.678,2.594-1.512,5.131-2.48,7.541
						c-2.194,5.502-5.153,10.658-8.792,15.324C380.066,283.726,361.47,292.651,342.133,292.651z M342.086,166.952
						c-10.188,0-20.163,2.49-29.254,7.35c-4.804,2.557-9.266,5.746-13.262,9.476c-2.88,2.684-5.505,5.639-7.804,8.783
						c-3.259,4.458-5.908,9.317-7.874,14.443c-1.706,4.466-2.901,9.124-3.552,13.844c-4.254,30.674,14.96,60.179,44.695,68.63
						c2.789,0.797,5.676,1.404,8.582,1.803c22.029,3.057,44.216-5.96,57.895-23.53c3.594-4.608,6.514-9.7,8.682-15.134
						c0.955-2.381,1.779-4.886,2.448-7.447c0.6-2.336,1.076-4.747,1.415-7.167c0.369-2.649,0.568-5.332,0.591-7.974
						c0.031-2.638-0.108-5.292-0.412-7.891c-0.607-5.189-1.865-10.28-3.739-15.133c-1.985-5.148-4.64-10.008-7.89-14.443
						c-2.287-3.145-4.903-6.1-7.773-8.784c-3.976-3.725-8.427-6.913-13.23-9.476c-6.468-3.457-13.472-5.727-20.817-6.747
						C347.881,167.152,344.975,166.952,342.086,166.952z"/>
				</g>
			</g>
			<g>
				<g>
					<path style="fill:#5555C9;" d="M352.549,154.844c-41.2-5.712-79.215,23.045-84.924,64.237
						c-5.716,41.181,23.041,79.195,64.239,84.916c41.183,5.707,79.198-23.049,84.905-64.232
						C422.487,198.575,393.73,160.56,352.549,154.844z M404.318,238.037c-4.756,34.306-36.421,58.264-70.736,53.506
						c-34.314-4.758-58.262-36.43-53.506-70.736c4.758-34.315,36.423-58.273,70.746-53.513
						C385.128,172.051,409.076,203.723,404.318,238.037z"/>
				</g>
			</g>
			<g>
				<g>
					<path style="fill:#FFFFFF;" d="M342.336,295.921c-3.076,0-6.172-0.212-9.272-0.642c-36.311-5.035-61.757-38.674-56.723-74.988
						c2.439-17.595,11.583-33.185,25.746-43.899c14.165-10.715,31.658-15.271,49.253-12.831
						c17.589,2.438,33.175,11.582,43.886,25.747c10.711,14.164,15.266,31.655,12.826,49.249
						c-2.439,17.59-11.581,33.178-25.743,43.891C370.642,291.273,356.717,295.921,342.336,295.921z M342.065,163.7
						c-14.215,0-27.975,4.592-39.506,13.315c-13.997,10.588-23.033,25.995-25.444,43.383c-4.975,35.887,20.171,69.13,56.056,74.106
						c17.383,2.41,34.669-2.093,48.666-12.681c13.995-10.587,23.031-25.991,25.441-43.375c2.411-17.387-2.091-34.672-12.675-48.669
						c-10.585-13.998-25.987-23.035-43.369-25.444C348.169,163.91,345.106,163.7,342.065,163.7z"/>
				</g>
			</g>
			<g>
				<g>
					<path style="fill:#47393D;" d="M342.354,304.497c-3.473,0-6.968-0.24-10.468-0.725c-40.994-5.684-69.721-43.662-64.037-84.659
						c2.754-19.863,13.077-37.464,29.066-49.56c15.991-12.096,35.739-17.241,55.605-14.485
						c19.857,2.753,37.453,13.076,49.545,29.067c12.092,15.991,17.234,35.736,14.48,55.6c-2.753,19.858-13.074,37.456-29.063,49.551
						C374.31,299.25,358.589,304.497,342.354,304.497z M342.048,155.124c-16.069,0-31.625,5.191-44.661,15.053
						c-15.823,11.969-26.038,29.387-28.764,49.043c-5.624,40.569,22.804,78.151,63.371,83.777
						c19.655,2.726,39.193-2.366,55.016-14.336c15.822-11.969,26.035-29.383,28.76-49.035c2.725-19.656-2.363-39.196-14.329-55.02
						c-11.966-15.824-29.378-26.04-49.029-28.764C348.948,155.362,345.485,155.124,342.048,155.124z"/>
				</g>
			</g>
			<g style="opacity:0.44;">
				<g>
					<g>
						<path style="fill:#B3C0C6;" d="M324.928,206.863v82.99c-29.668-8.432-49.333-37.647-44.976-69.059
							c0.673-4.873,1.893-9.527,3.575-13.931H324.928z"/>
					</g>
				</g>
				<g>
					<g>
						<path style="fill:#D5DCE0;" d="M404.625,222.093h-70.264v-15.229h66.502C402.733,211.705,404.008,216.813,404.625,222.093z"/>
					</g>
				</g>
				<g>
					<g>
						<path style="fill:#D5DCE0;" d="M405.04,230.032c-0.023,2.652-0.219,5.327-0.595,8.025c-0.344,2.456-0.821,4.865-1.424,7.212
							h-68.661v-15.237H405.04z"/>
					</g>
				</g>
				<g>
					<g>
						<path style="fill:#D5DCE0;" d="M400.558,252.762c-2.206,5.53-5.162,10.646-8.737,15.229h-57.46v-15.229H400.558z"/>
					</g>
				</g>
				<g>
					<g>
						<path style="fill:#D5DCE0;" d="M371.789,173.957h-59.141c11.295-6.038,24.537-8.682,38.194-6.789
							C358.39,168.215,365.438,170.562,371.789,173.957z"/>
					</g>
				</g>
				<g>
					<g>
						<path style="fill:#B3C0C6;" d="M392.924,192.33H291.451c2.339-3.199,4.975-6.156,7.853-8.839h85.798
							C387.988,186.19,390.609,189.147,392.924,192.33z"/>
					</g>
				</g>
			</g>
			<g>
				<g>
					<path style="fill:#F75C5C;" d="M506.503,469.757c13.694,2.148,26.419,3.044,36.096,0c0,0,8.188-91.787-6.327-176.121
						l-29.029,0.127C507.242,293.762,496.077,395.116,506.503,469.757z"/>
				</g>
			</g>
			<g>
				<g>
					<path style="fill:#F75C5C;" d="M426.684,469.757c13.219,1.869,25.583,2.303,36.316,0
						c44.548-82.643,63.192-175.995,63.192-175.995h-34.42C447.314,370.349,426.684,469.757,426.684,469.757z"/>
				</g>
			</g>
			<g>
				<g>
					<path style="fill:#FFFFFF;" d="M455.355,269.754l-19.539-10.514l-7.119,9.257c0,0,11.517,30.02,34.101,27.495
						c18.066-2.019,28.96-35.885,28.96-35.885L455.355,269.754z"/>
				</g>
			</g>
			<g>
				<g>
					<path style="fill:#FFFFFF;" d="M544.881,318.913c-31.077,14.147-76.251,1.764-76.251,1.764l1.378-4.577l0.211-0.707
						l11.749-39.124l-30.895-0.372c0,0,20.699-29.044,32.754-36.106c3.149-1.844,7.368-3.236,12.142-4.111
						c0.372-0.066,0.751-0.131,1.13-0.189c7.762-1.268,16.843-1.181,25.116,0.568c0.292,0.058,0.583,0.124,0.867,0.189
						c4.643,1.049,9.001,2.631,12.696,4.803c0,0-2.216,12.478,0.889,20.954c7.062,19.27,8.126,42.287,8.236,52.097
						c0.007,0.277,0.007,0.539,0.007,0.794C544.932,317.448,544.881,318.913,544.881,318.913z"/>
				</g>
			</g>
			<g>
				<g>
					
						<rect x="449.074" y="264.714" transform="matrix(0.6317 -0.7752 0.7752 0.6317 -36.3492 453.7024)" style="fill:#47393D;" width="20.449" height="0.782"/>
				</g>
			</g>
			<g>
				<g>
					<path style="fill:#47393D;" d="M505.652,209.484c0,0-10.128-3.798-7.462-16.057c0,0,1.166,0.933,4.764,0.633
						c3.285-0.274,15.491-5.43,21.621,6.296c6.08,11.631-2.265,25.452-10.527,23.053
						C506.428,221.197,505.519,212.149,505.652,209.484z"/>
				</g>
			</g>
			<g>
				<g>
					<circle style="fill:#FFB587;" cx="507.451" cy="212.482" r="3.498"/>
				</g>
			</g>
			<g>
				<g>
					<path style="fill:#47393D;" d="M542.166,220.082c1.181,0.243,5.084,1.33,6.609,5.202c1.971,5.022,3.183,8.041,9.535,8.612
						l-1.666,1.94c-13.391,0.712-5.788-15.871-17.31-13.156c-3.661,0.86-4.99-5.147-6.109-14.025
						c-1.119-8.878-10.348-4.638-10.348-4.638l-0.117-4.56c0,0,5.577-9.621,13.548-4.646c7.97,4.967,5.499,16.465,16.77,9.621
						c13.242-8.041,21.088,11.021,21.088,11.021l-15.088,17.56c-1.439,0.016-5.866-0.282-8.072-4.591
						C548.274,223.07,547.774,221.06,542.166,220.082z"/>
				</g>
			</g>
			<g>
				<g>
					<path style="fill:#47393D;" d="M500.762,228.37c-3.928,0-6.057-2.032-6.177-2.15l0.548-0.558
						c0.151,0.148,3.789,3.579,10.509,0.915l0.289,0.727C503.961,228.084,502.235,228.37,500.762,228.37z"/>
				</g>
			</g>
			<g>
				<g>
					<path style="fill:#FFB587;" d="M518.288,235.163c-9.165,4.308-16.772-0.397-16.772-0.397l0.214-1.68l16.222-0.214
						L518.288,235.163z"/>
				</g>
			</g>
			<g>
				<g>
					<g>
						<path style="fill:#47393D;" d="M544.91,314.897c-11.96,4.92-24.766,6.53-36.427,6.53c-17.944,0-33.184-3.826-38.475-5.328
							l0.211-0.707c8.688,2.478,44.473,11.275,74.684-1.29C544.91,314.38,544.91,314.642,544.91,314.897z"/>
					</g>
				</g>
			</g>
			<g>
				<g>
					<path style="fill:#47393D;" d="M544.492,318.914c0-0.333-0.109-33.605-8.192-56.78l0.738-0.258
						c8.128,23.301,8.236,56.703,8.236,57.037H544.492z"/>
				</g>
			</g>
			<g>
				<g>
					<g>
						<path style="fill:#47393D;" d="M523.082,236.249c-3.389,3.258-7.383,4.366-11.268,4.366c-7.485,0-14.526-4.125-15.845-4.934
							c0.372-0.066,0.751-0.131,1.13-0.189c3.557,2.048,16.384,8.454,25.116,0.568C522.506,236.118,522.797,236.183,523.082,236.249
							z"/>
					</g>
				</g>
			</g>
			<g>
				<g>
					<g>
						<path style="fill:#47393D;" d="M450.002,494.48h-37.666c-0.045-0.446-0.136-1.822,0.151-3.267
							c0.015-0.03,36.986,0.212,36.986,0.212L450.002,494.48z"/>
					</g>
				</g>
				<g>
					<g>
						<path style="fill:#F75C5C;" d="M449.472,491.425l-36.97-0.242c0.355-3.826,5.157-5.626,9.642-6.768
							c0.302-0.076,0.597-0.144,0.892-0.219c0.643-0.151,1.27-0.287,1.868-0.424c0.31-0.068,0.612-0.136,0.9-0.197
							c1.55-0.348,2.836-0.643,3.577-0.991c0.665-0.318,1.474-0.779,2.178-1.202c0.242-0.144,0.461-0.287,0.665-0.416
							c0.665-0.416,1.142-0.734,1.142-0.734c2.42,0.794,6.065,3.07,14.065-0.552l0.242,1.391l0.136,0.786L449.472,491.425z"/>
					</g>
				</g>
				<g>
					<g>
						<g>
							<g>
								<path style="fill:#47393D;" d="M423.036,484.196c-0.56,1.293-0.62,2.684-0.62,2.7l-0.756-0.03
									c0.008-0.076,0.053-1.21,0.484-2.45C422.446,484.34,422.741,484.272,423.036,484.196z"/>
							</g>
						</g>
					</g>
					<g>
						<g>
							<g>
								<path style="fill:#47393D;" d="M425.803,483.576c-0.62,1.339-0.681,2.821-0.681,2.836l-0.756-0.023
									c0-0.083,0.053-1.316,0.537-2.617C425.214,483.704,425.516,483.636,425.803,483.576z"/>
							</g>
						</g>
					</g>
				</g>
				<g>
					<g>
						<g>
							<path style="fill:#47393D;" d="M447.809,481.859c-3.297,1.641-6.118,2.208-8.454,2.208c-4.318,0-6.957-1.951-7.796-2.685
								c0.242-0.144,0.461-0.287,0.665-0.416c1.407,1.202,6.556,4.635,15.449,0.106L447.809,481.859z"/>
						</g>
					</g>
				</g>
			</g>
			<g>
				<g>
					<path style="fill:#47393D;" d="M574.554,213.325c-0.044-0.098-4.433-9.816-11.585-11.949c-3.006-0.897-6.109-0.331-9.225,1.68
						c-2.998,1.935-5.222,2.64-6.997,2.223c-2.101-0.495-3.263-2.459-4.61-4.732c-1.37-2.313-2.922-4.936-5.836-6.644
						c-2.062-1.209-4.118-1.541-6.109-0.99c-4.161,1.155-6.738,5.808-6.763,5.855l-0.688-0.373c0.111-0.203,2.754-4.987,7.237-6.234
						c2.206-0.615,4.465-0.254,6.719,1.068c3.087,1.81,4.695,4.525,6.113,6.92c1.256,2.12,2.34,3.951,4.116,4.37
						c1.557,0.365,3.586-0.308,6.393-2.119c3.318-2.142,6.643-2.738,9.876-1.772c7.498,2.238,11.89,11.967,12.073,12.38
						L574.554,213.325z"/>
				</g>
			</g>
			<g>
				<g>
					<path style="fill:#47393D;" d="M505.561,209.864c-5.299-1.281-8.572-3.547-9.73-6.733c-1.727-4.752,1.89-9.727,2.044-9.937
						l0.629,0.465c-0.035,0.048-3.522,4.854-1.937,9.209c1.064,2.923,4.152,5.021,9.177,6.236L505.561,209.864z"/>
				</g>
			</g>
			<g>
				<g>
					<path style="fill:#47393D;" d="M463.344,469.942l-0.689-0.371c23.939-44.41,40.305-91.981,49.818-124.069l0.75,0.223
						C503.699,377.847,487.315,425.473,463.344,469.942z"/>
				</g>
			</g>
			<g>
				<g>
					
						<rect x="485.2" y="271.363" transform="matrix(0.6544 -0.7561 0.7561 0.6544 -36.6854 463.237)" style="fill:#47393D;" width="6.513" height="0.782"/>
				</g>
			</g>
			<g>
				<g>
					<path style="fill:#47393D;" d="M541.304,314.824h-0.782c0-7.614-0.921-17.174-0.93-17.27l0.779-0.076
						C540.38,297.574,541.304,307.172,541.304,314.824z"/>
				</g>
			</g>
			<g>
				<g>
					<path style="fill:#47393D;" d="M460.149,296.532c-20.864,0-31.705-27.604-31.816-27.895l0.73-0.28
						c0.114,0.297,11.677,29.703,33.692,27.246c17.608-1.968,28.523-35.28,28.632-35.616l0.744,0.24
						c-0.448,1.392-11.179,34.129-29.289,36.154C461.926,296.483,461.028,296.532,460.149,296.532z"/>
				</g>
			</g>
			<g>
				<g style="opacity:0.8;">
					<g>
						<g>
							<path style="fill:#FFFFFF;" d="M393.337,252.689c0.682-5.412,1.219-10.531,1.388-15.633
								c0.119-5.085-0.072-10.108-0.698-15.061c-0.613-4.969-1.662-9.864-3.047-14.763c-1.428-4.893-3.248-9.716-5.254-14.786
								l0.315-0.231c1.596,2.126,3.058,4.355,4.374,6.668c1.302,2.322,2.451,4.73,3.448,7.199
								c1.996,4.939,3.356,10.137,4.042,15.425c0.646,5.294,0.606,10.666-0.092,15.946c-0.353,2.64-0.865,5.256-1.537,7.833
								c-0.702,2.569-1.559,5.092-2.578,7.548L393.337,252.689z"/>
						</g>
					</g>
				</g>
				<g style="opacity:0.8;">
					<g>
						<path style="fill:#FFFFFF;" d="M349.841,285.264c-2.957-0.365-5.843-0.912-8.635-1.628
							c-29.668-7.565-49.333-33.774-44.976-61.955c0.673-4.372,1.893-8.547,3.575-12.498c2.01-4.702,4.693-9.073,7.924-13.038
							c2.339-2.87,4.975-5.522,7.853-7.929c4.005-3.354,8.495-6.238,13.344-8.554c7.228-3.466,15.26-5.684,23.685-6.393
							c-12.617-1.038-24.78,1.361-35.269,6.393c-4.849,2.316-9.339,5.2-13.344,8.554c-2.879,2.407-5.515,5.059-7.853,7.929
							c-3.23,3.965-5.913,8.337-7.924,13.038c-1.682,3.951-2.902,8.126-3.575,12.498c-4.357,28.181,15.307,54.39,44.976,61.955
							c2.792,0.716,5.679,1.263,8.635,1.628c4.912,0.61,9.762,0.695,14.494,0.302C351.781,285.489,350.811,285.384,349.841,285.264z
							 M349.841,285.264c-2.957-0.365-5.843-0.912-8.635-1.628c-29.668-7.565-49.333-33.774-44.976-61.955
							c0.673-4.372,1.893-8.547,3.575-12.498c2.01-4.702,4.693-9.073,7.924-13.038c2.339-2.87,4.975-5.522,7.853-7.929
							c4.005-3.354,8.495-6.238,13.344-8.554c7.228-3.466,15.26-5.684,23.685-6.393c-12.617-1.038-24.78,1.361-35.269,6.393
							c-4.849,2.316-9.339,5.2-13.344,8.554c-2.879,2.407-5.515,5.059-7.853,7.929c-3.23,3.965-5.913,8.337-7.924,13.038
							c-1.682,3.951-2.902,8.126-3.575,12.498c-4.357,28.181,15.307,54.39,44.976,61.955c2.792,0.716,5.679,1.263,8.635,1.628
							c4.912,0.61,9.762,0.695,14.494,0.302C351.781,285.489,350.811,285.384,349.841,285.264z"/>
					</g>
				</g>
			</g>
			<g>
				<g>
					<g>
						<path style="fill:#F75C5C;" d="M315.208,211.501h4.75v25.376c0,3.43-1.03,6.113-3.089,8.049
							c-2.059,1.936-4.804,2.904-8.234,2.904c-3.561,0-6.334-0.911-8.319-2.732c-1.986-1.821-2.978-4.373-2.978-7.655h4.726
							c0,2.051,0.562,3.651,1.686,4.8c1.124,1.148,2.753,1.723,4.886,1.723c1.952,0,3.532-0.615,4.738-1.846
							c1.206-1.231,1.817-2.953,1.834-5.169V211.501z"/>
					</g>
					<g>
						<path style="fill:#F75C5C;" d="M355.574,230.577c0,3.512-0.59,6.576-1.772,9.193c-1.181,2.617-2.854,4.615-5.021,5.993
							c-2.166,1.378-4.693,2.068-7.581,2.068c-2.823,0-5.325-0.693-7.507-2.08c-2.182-1.386-3.877-3.364-5.083-5.932
							c-1.206-2.568-1.826-5.542-1.859-8.923v-2.585c0-3.446,0.599-6.489,1.797-9.132c1.197-2.642,2.892-4.664,5.083-6.067
							c2.19-1.403,4.697-2.104,7.519-2.104c2.871,0,5.403,0.693,7.594,2.08c2.19,1.387,3.876,3.397,5.057,6.031
							c1.182,2.633,1.772,5.698,1.772,9.193V230.577z M350.874,228.263c0-4.25-0.853-7.511-2.56-9.784
							c-1.707-2.272-4.094-3.409-7.163-3.409c-2.987,0-5.338,1.137-7.052,3.409c-1.715,2.273-2.597,5.427-2.646,9.464v2.633
							c0,4.119,0.865,7.356,2.596,9.71c1.732,2.355,4.115,3.532,7.151,3.532c3.052,0,5.415-1.111,7.089-3.335
							c1.674-2.224,2.535-5.411,2.585-9.562V228.263z"/>
					</g>
					<g>
						<path style="fill:#F75C5C;" d="M362.664,247.339v-35.837h11.716c3.889,0,6.814,0.804,8.774,2.412
							c1.961,1.608,2.942,3.988,2.942,7.138c0,1.674-0.476,3.155-1.428,4.443c-0.952,1.289-2.248,2.285-3.889,2.99
							c1.936,0.542,3.466,1.572,4.59,3.089c1.124,1.518,1.687,3.327,1.687,5.428c0,3.216-1.043,5.743-3.126,7.581
							c-2.084,1.838-5.029,2.757-8.836,2.757H362.664z M367.39,226.786h7.138c2.068,0,3.721-0.518,4.96-1.554
							c1.239-1.036,1.859-2.442,1.859-4.218c0-1.973-0.575-3.408-1.723-4.304c-1.149-0.896-2.896-1.344-5.242-1.344h-6.99V226.786z
							 M367.39,230.577v12.898h7.802c2.199,0,3.934-0.57,5.206-1.711c1.272-1.14,1.908-2.711,1.908-4.713
							c0-4.316-2.347-6.474-7.04-6.474H367.39z"/>
					</g>
				</g>
				<g>
					<g>
						<path style="fill:#F75C5C;" d="M308.636,249.331c-3.931,0-7.071-1.052-9.333-3.127c-2.298-2.109-3.464-5.056-3.464-8.76v-1.5
							h7.726v1.5c0,1.659,0.412,2.886,1.258,3.751c0.837,0.856,2.085,1.272,3.814,1.272c1.547,0,2.746-0.456,3.667-1.396
							c0.932-0.951,1.391-2.301,1.405-4.13v-26.939h7.751v26.876c0,3.843-1.198,6.919-3.562,9.142
							C315.56,248.217,312.444,249.331,308.636,249.331z M298.921,238.944c0.245,2.131,1.039,3.792,2.41,5.049
							c1.691,1.551,4.148,2.338,7.305,2.338c3.062,0,5.419-0.817,7.206-2.498c1.761-1.656,2.617-3.932,2.617-6.956v-23.876h-1.751
							v23.951c-0.02,2.619-0.781,4.707-2.263,6.218c-1.494,1.524-3.448,2.296-5.81,2.296c-2.543,0-4.547-0.731-5.958-2.174
							c-1.103-1.127-1.779-2.585-2.017-4.349H298.921z"/>
					</g>
					<g>
						<path style="fill:#F75C5C;" d="M341.2,249.331c-3.099,0-5.896-0.779-8.312-2.314c-2.416-1.535-4.312-3.742-5.636-6.56
							c-1.292-2.753-1.966-5.965-2-9.546v-2.599c0-3.646,0.65-6.926,1.931-9.751c1.313-2.897,3.21-5.155,5.64-6.711
							c2.424-1.554,5.227-2.341,8.329-2.341c3.146,0,5.971,0.778,8.396,2.312c2.434,1.542,4.326,3.791,5.624,6.685
							c1.263,2.815,1.903,6.114,1.903,9.807v2.265c0,3.71-0.641,7.011-1.905,9.811c-1.298,2.876-3.176,5.11-5.583,6.642
							C347.186,248.557,344.364,249.331,341.2,249.331z M341.151,212.509c-2.519,0-4.776,0.628-6.71,1.868
							c-1.934,1.238-3.456,3.063-4.525,5.423c-1.104,2.433-1.664,5.297-1.664,8.512v2.585c0.03,3.132,0.608,5.925,1.716,8.285
							c1.077,2.294,2.601,4.079,4.529,5.303c1.928,1.225,4.183,1.846,6.703,1.846c2.584,0,4.864-0.617,6.776-1.834
							c1.905-1.212,3.406-3.01,4.459-5.345c1.088-2.409,1.639-5.295,1.639-8.576v-2.265c0-3.267-0.552-6.153-1.641-8.579
							c-1.053-2.348-2.564-4.157-4.492-5.378C346.005,213.13,343.721,212.509,341.151,212.509z M341.2,245.319
							c-3.525,0-6.337-1.394-8.359-4.144c-1.916-2.606-2.888-6.172-2.888-10.599v-2.633c0.053-4.362,1.044-7.844,2.949-10.368
							c2.005-2.658,4.781-4.006,8.25-4.006c3.55,0,6.363,1.349,8.362,4.008c1.898,2.528,2.86,6.123,2.86,10.685v2.659
							c-0.054,4.477-1.025,7.992-2.887,10.465C347.523,243.996,344.735,245.319,341.2,245.319z M341.151,216.57
							c-2.512,0-4.427,0.92-5.855,2.813c-1.51,2.002-2.299,4.889-2.343,8.579v2.615c0,3.773,0.775,6.741,2.305,8.821
							c1.445,1.965,3.389,2.921,5.942,2.921c2.577,0,4.504-0.895,5.89-2.737c1.47-1.952,2.238-4.872,2.284-8.679v-2.641
							c0-3.898-0.76-6.887-2.259-8.883C345.694,217.489,343.743,216.57,341.151,216.57z"/>
					</g>
					<g>
						<path style="fill:#F75C5C;" d="M375.093,248.839h-13.93v-38.837h13.216c4.226,0,7.499,0.926,9.725,2.752
							c2.316,1.9,3.49,4.692,3.49,8.298c0,1.994-0.579,3.789-1.722,5.334c-0.525,0.711-1.143,1.349-1.848,1.909
							c0.986,0.63,1.838,1.427,2.548,2.386c1.314,1.774,1.981,3.901,1.981,6.32c0,3.65-1.223,6.579-3.634,8.706
							C382.565,247.785,379.259,248.839,375.093,248.839z M364.164,245.839h10.93c3.413,0,6.052-0.801,7.844-2.381
							c1.762-1.554,2.619-3.666,2.619-6.456c0-1.787-0.455-3.27-1.392-4.535c-0.928-1.254-2.168-2.084-3.789-2.538l-4.092-1.145
							l3.904-1.678c1.405-0.604,2.476-1.423,3.274-2.504c0.763-1.033,1.134-2.194,1.134-3.551c0-2.702-0.783-4.658-2.393-5.979
							c-1.677-1.375-4.309-2.072-7.823-2.072h-10.216V245.839z M375.192,244.974h-9.302v-15.898h9.376
							c5.507,0,8.54,2.831,8.54,7.974c0,2.436-0.81,4.398-2.407,5.83C379.85,244.27,377.761,244.974,375.192,244.974z
							 M368.89,241.974h6.302c1.833,0,3.208-0.434,4.204-1.327c0.949-0.851,1.41-2.027,1.41-3.597c0-3.486-1.657-4.974-5.54-4.974
							h-6.376V241.974z M374.527,228.286h-8.638v-14.42h8.49c2.715,0,4.731,0.543,6.165,1.662c1.527,1.19,2.301,3.037,2.301,5.487
							c0,2.233-0.806,4.039-2.396,5.369C378.939,227.646,376.947,228.286,374.527,228.286z M368.89,225.286h5.638
							c1.721,0,3.028-0.394,3.997-1.204c0.901-0.754,1.321-1.729,1.321-3.068c0-1.499-0.374-2.52-1.146-3.122
							c-0.874-0.681-2.327-1.027-4.32-1.027h-5.49V225.286z"/>
					</g>
				</g>
			</g>
		</g>
		<g>
			<g>
				<g>
					<g>
						<g>
							<path style="fill:#47393D;" d="M650.769,195.838c10.506,0.906,14.539,6.303,16.493,10.1
								c1.954,3.797,2.433,8.045,2.916,12.207c0.483,4.161,1.023,8.411,3.08,12.165c1.773,3.235,4.62,5.993,5.93,9.398
								c1.716,4.459,0.397,9.744-3.304,13.245c-9.581-3.147-19.059-5.542-28.64-8.69
								C649.562,229.639,650.769,195.838,650.769,195.838z"/>
						</g>
					</g>
				</g>
			</g>
			<g>
				<g>
					<g>
						<g>
							<g>
								<path style="fill:#47393D;" d="M613.872,258.341c-3.957-20.322,14.263-23.203,17.471-35.582
									c1.753-6.764,0.898-26.687,17.657-26.982c15.205-0.267,17.01,17.125,17.01,17.125l-4.311-5.802l-16.75,1.139
									c0.109,5.509-1.622,9.025-1.622,9.025l9.659,11.042l-9.651,25.42L613.872,258.341z"/>
							</g>
						</g>
					</g>
				</g>
				<g>
					<g>
						<g>
							<g>
								<g>
									<path style="fill:#47393D;" d="M609.555,257.544c-1.881-12.929,4.464-18.571,10.6-24.027
										c3.683-3.275,7.161-6.368,8.57-10.899c0.364-1.171,0.668-2.773,1.02-4.627c1.581-8.325,4.208-22.22,18.399-21.831l-0.031,1
										c-13.282-0.399-15.767,12.488-17.386,21.017c-0.358,1.885-0.667,3.512-1.048,4.738c-1.491,4.797-5.071,7.98-8.86,11.35
										c-5.938,5.28-12.078,10.74-10.274,23.136L609.555,257.544z"/>
								</g>
							</g>
						</g>
					</g>
				</g>
			</g>
			<g>
				<g>
					<g>
						<g>
							<g>
								<polygon style="fill:#443438;" points="709.552,412.289 718.015,420.797 689.255,421.205 								"/>
							</g>
						</g>
					</g>
				</g>
			</g>
			<g>
				<g>
					<g>
						<g>
							<g>
								<path style="fill:#FFB78F;" d="M695.309,426.503l1.402-14.11h15.187l-3.299,13.7c0,0-1.759,4.593-6.865,4.424
									C696.825,430.355,695.309,426.503,695.309,426.503z"/>
							</g>
						</g>
					</g>
				</g>
			</g>
			<g>
				<g>
					<g>
						<g>
							<g>
								<polygon style="fill:#443438;" points="622.741,474.498 578.312,473.064 610.05,464.996 								"/>
							</g>
						</g>
					</g>
				</g>
			</g>
			<g>
				<g>
					<g>
						<g>
							<g>
								<path style="fill:#FFB78F;" d="M608.874,467.557l-2.26,8.42l-1.56,5.79c0,0-1.41,3.29-6.34,3.91
									c-4.87,0.61-6.43-4.01-6.43-4.01l0.51-5.13l0.9-8.98H608.874z"/>
							</g>
						</g>
					</g>
				</g>
			</g>
			<g>
				<g>
					<g>
						<path style="fill:#FCA377;" d="M608.874,467.557l-2.26,8.42c-5.11,0.77-11.14,0.66-13.82,0.56l0.9-8.98H608.874z"/>
					</g>
				</g>
			</g>
			<g>
				<g>
					<g>
						<path style="fill:#FCA377;" d="M711.768,413.429l-2.26,8.42c-5.11,0.77-11.14,0.66-13.82,0.56l0.9-8.98H711.768z"/>
					</g>
				</g>
			</g>
			<g>
				<g>
					<g>
						<g>
							<path style="fill:#C16A4C;" d="M622.741,474.498c0,0,34.119-87.392,33.115-159.478l-38.851,0.89
								c-3.228,10.027-2.684,22.823-3.217,27.609c-6.723,60.41-36.345,129.536-36.345,129.536s9.901,2.178,25.651-1.762
								C611.849,469.104,618.467,471.709,622.741,474.498L622.741,474.498z"/>
						</g>
					</g>
				</g>
			</g>
			<g>
				<g>
					<g>
						<g>
							<g>
								<path style="fill:#47393D;" d="M586.994,473.445l-0.693-0.287c0.287-0.694,28.785-70.141,34.664-129.883
									c0.122-1.238,0.165-3.062,0.216-5.174c0.143-5.997,0.358-15.061,2.663-22.548l0.717,0.221
									c-2.274,7.388-2.489,16.389-2.631,22.345c-0.051,2.127-0.094,3.964-0.219,5.23
									C615.821,403.203,587.281,472.75,586.994,473.445z"/>
							</g>
						</g>
					</g>
				</g>
			</g>
			<g>
				<g>
					<g>
						<g>
							<path style="fill:#C16A4C;" d="M675.253,414.748c0,0,4.81,6.641,12.697,6.371c7.887-0.271,17.432-7.54,30.064-0.321
								c0,0,7.911-35.947,10.27-62.709c0.678-7.687,0.898-15.119-2.475-19.424c-4.012-5.118-11.674-6.956-23.081-10.121
								c-13.338-3.701-24.835-6.864-24.835-6.864l-2.016-8.221l-35.667,0.83l13.57,41.324l33.922,10.321L675.253,414.748z"/>
						</g>
					</g>
				</g>
			</g>
			<g>
				<g>
					<g>
						<g>
							<path style="fill:#FFB587;" d="M704.357,243.961c3.145,0.2,6.757-3.029,7.04-6.041c0.146-1.555,0.742-2.46-0.44-2.592
								c0.364-1.257-0.154-1.852-1.42-1.773c0.114-1.225-0.496-1.557-1.376-1.473c0.08-2.926-6.782,1.958-7.491,2.659
								c-1.737,1.717-1.904,5.03-1.904,5.03l-10.485,31.916l-2.929-8.121l-21.968,11.849c0,0,5.504,11.978,16.169,17.422
								c4.733,2.416,11.657,2.882,14.652,1.883c10.549-3.517,12.904-12.071,12.712-24.762
								C706.718,256.766,704.357,243.961,704.357,243.961z"/>
						</g>
					</g>
				</g>
			</g>
			<g>
				<g>
					<g>
						<g>
							<g>
								<path style="fill:#5555C9;" d="M609.021,322.28c22.676,18.573,71.205-2.396,71.205-2.396l-7.148-54.145l-13.374-24.424
									c0,0-6.92,7.961-15.85-1.332l-27.714,10.276l1.843,30.616C617.984,280.891,609.021,322.28,609.021,322.28z"/>
							</g>
						</g>
					</g>
				</g>
			</g>
			<g>
				<g>
					<g>
						<g>
							<path style="fill:#5555C9;" d="M613.443,281.31l62.611,1.116c0,0,7.7-11.804,12.46-13.867c0,0-9.686-26.861-35.933-29.06
								c-3.887-0.326-7.548-0.558-11.008-0.624L613.443,281.31z"/>
						</g>
					</g>
				</g>
			</g>
			<g>
				<g>
					<g>
						<g>
							<g>
								<g>
									<path style="fill:#FFB587;" d="M642.193,240.535c1.761-5.848,2.268-12.305,1.571-19.347l12.218,6.825l2.378,13.755
										C658.359,241.769,652.026,249.058,642.193,240.535z"/>
								</g>
							</g>
						</g>
					</g>
				</g>
			</g>
			<g>
				<g>
					<g>
						<g>
							<g>
								<path style="fill:#FFB587;" d="M662.094,205.836c3.534,6.02,7.959,25.684-0.985,27.455
									c-9.349,1.851-15.787-8.373-15.787-8.373s-4.271,2.507-6.115-1.353c-1.663-3.481,2.427-5.985,4.244-4.724
									c0,0-3.613-8.644,0.965-12.898C648.995,201.689,658.265,199.312,662.094,205.836z"/>
							</g>
						</g>
					</g>
				</g>
			</g>
			<g>
				<g>
					<g>
						<g>
							<g>
								<path style="fill:#47393D;" d="M688.882,275.273c-0.505-1.348,0.031-2.963,0.037-2.979l-0.747-0.24
									c-0.026,0.076-0.634,1.89-0.029,3.502L688.882,275.273z"/>
							</g>
						</g>
					</g>
				</g>
			</g>
			<g>
				<g>
					<g>
						<g>
							<path style="fill:#47393D;" d="M643.451,218.841c0,0,11.744-3.186,14.466-11.998c0,0,3.795,5.525,7.791,6.649
								c0,0,0.907-12.96-10.699-13.67c-11.606-0.71-15.72,10.808-14.306,14.638C641.61,216.914,643.451,218.841,643.451,218.841z"/>
						</g>
					</g>
				</g>
			</g>
			<g>
				<g>
					<g>
						<g>
							<g>
								<g>
									<g>
										<path style="fill:#FFFFFF;" d="M714.94,208.704c7.298,9.461,17.267,14.118,22.265,10.4
											c4.998-3.717,3.134-14.4-4.165-23.861c-7.298-9.461-17.267-14.117-22.265-10.4
											C705.777,188.559,707.641,199.242,714.94,208.704z"/>
									</g>
								</g>
							</g>
						</g>
					</g>
					<g>
						<g>
							<g>
								<g>
									<g>
										<polygon style="fill:#47393D;" points="717.508,201.507 711.435,204.481 717.853,214.353 723.318,209.284 										"/>
									</g>
								</g>
							</g>
						</g>
					</g>
					<g>
						<g>
							<g>
								<g>
									<g>
										<path style="fill:#F75C5C;" d="M718.615,206.871c1.563,2.162,3.627,3.28,4.609,2.497c0.982-0.784,0.511-3.172-1.053-5.334
											c-1.563-2.162-3.627-3.28-4.609-2.497C716.58,202.32,717.052,204.708,718.615,206.871z"/>
									</g>
								</g>
							</g>
						</g>
					</g>
					<g>
						<g>
							<g>
								<g>
									<g>
										<path style="fill:#47393D;" d="M698.643,227.97l7.286,15.745c0.306,0.662,1.159,0.874,1.749,0.435l3.279-2.442
											c0.526-0.392,0.715-1.085,0.457-1.683l-7.583-17.572L698.643,227.97z"/>
									</g>
								</g>
							</g>
						</g>
					</g>
					<g>
						<g>
							<g>
								<g>
									<g>
										<path style="fill:#F75C5C;" d="M690.843,228.115c1.798,2.331,4.146,3.668,5.711,3.384l39.265-11.462
											c-6.786,1.657-15.017-3.734-20.879-11.334c-5.319-6.894-9.135-16.18-5.623-22.8l-20.294,36.009
											C688.407,223.335,689.091,225.844,690.843,228.115z"/>
									</g>
								</g>
							</g>
						</g>
					</g>
					<g>
						<g>
							<g>
								<g>
									<g>
										<path style="fill:#47393D;" d="M690.843,228.115c1.798,2.331,4.146,3.668,5.711,3.384l5.382-1.613
											c-2.081-0.287-4.804-2.155-7.012-5.017c-2.154-2.794-3.247-5.794-3.037-7.836l-2.863,4.878
											C688.407,223.335,689.091,225.844,690.843,228.115z"/>
									</g>
								</g>
							</g>
						</g>
					</g>
					<g>
						<g>
							<g>
								<g>
									<g>
										<path style="fill:#47393D;" d="M726.571,219.598c-4.326-2.021-8.697-5.711-12.307-10.391
											c-7.697-9.979-9.454-20.972-4-25.028c5.455-4.055,15.756,0.583,23.453,10.562c3.61,4.68,6.044,9.811,6.853,14.447
											c0.843,4.828-0.17,8.586-2.853,10.581c-1.331,0.99-2.975,1.474-4.846,1.453
											C730.973,221.2,728.841,220.658,726.571,219.598z M711.287,185.506c-4.54,3.376-2.557,13.769,4.328,22.695
											c3.449,4.471,7.598,7.985,11.683,9.893c3.906,1.824,7.242,1.948,9.394,0.346c2.153-1.601,2.936-4.787,2.206-8.972
											c-0.764-4.378-3.085-9.251-6.534-13.722c-5.331-6.911-12.32-11.281-17.311-11.337
											C713.599,184.393,712.312,184.744,711.287,185.506z"/>
									</g>
								</g>
							</g>
						</g>
					</g>
				</g>
				<g>
					<g>
						<g>
							<g>
								<g>
									<polygon style="fill:#47393D;" points="742.08,201.68 761.494,199.345 761.339,198.106 741.925,200.441 									"/>
								</g>
							</g>
						</g>
					</g>
					<g>
						<g>
							<g>
								<g>
									<polygon style="fill:#47393D;" points="738.786,190.387 751.196,179.805 750.362,178.862 737.952,189.444 									"/>
								</g>
							</g>
						</g>
					</g>
					<g>
						<g>
							<g>
								<g>
									<polygon style="fill:#47393D;" points="727.676,182.627 732.067,174.768 730.951,174.167 726.56,182.026 									"/>
								</g>
							</g>
						</g>
					</g>
				</g>
			</g>
			<g>
				<g>
					<g>
						<g>
							<path style="fill:#FFB587;" d="M596.316,332.512c0,0-1.766,8.095,0.23,11.548c0.22,0.393,0.737,0.268,0.709-0.39
								c-0.05-1.179-0.38-3.137-0.066-3.128c0.634,0.011,0.588,5.511,1.977,5.417c1.029-0.075-0.416-6.261-0.118-6.311
								c0.608-0.089,0.755,5.68,2.082,5.554c1.256-0.121-0.67-4.971-0.269-5.142c0.429-0.191,1.16,3.888,2.014,3.849
								c1.297-0.052-0.761-6.519-0.323-6.825c0.701-0.497,1.808,2.788,2.783,2.32c0.93-0.441-2.835-6.839-2.8-7.604
								c0.353-7.712,6.661-36.015,6.661-36.015l11.583-20.237l-19.907-7.747c0,0-6.381,9.031-9.268,20.348
								C586.43,308.433,596.316,332.512,596.316,332.512z"/>
						</g>
					</g>
				</g>
			</g>
			<g>
				<g>
					<g>
						<g>
							<path style="fill:#5555C9;" d="M592.155,279.276c0,0,12.116,10.784,25.43,9.586l20.891-21.625l0.339-2.315l0.125-0.866
								l1.999-13.665l0.116-0.833l1.321-9.035l0.241-1.649C602.347,242.056,592.155,279.276,592.155,279.276z"/>
						</g>
					</g>
				</g>
			</g>
			<g>
				<g>
					<g>
						<g>
							<g>
								<path style="fill:#FFB587;" d="M711.682,235.687c0.327,0.467,0.163,1.108-0.351,1.357c-0.924,0.448-2.098,0.755-2.516,0.468
									c-0.738-0.506,0.567-1.403,1.547-2.066C710.794,235.154,711.384,235.261,711.682,235.687L711.682,235.687z"/>
							</g>
						</g>
					</g>
				</g>
				<g>
					<g>
						<g>
							<g>
								<path style="fill:#FFB587;" d="M710.418,234.697c0.134,0.419-0.037,0.872-0.42,1.095c-0.954,0.555-2.549,1.186-3.133,0.56
									c-0.372-0.398,0.919-1.425,2.018-2.222C709.414,233.744,710.218,234.074,710.418,234.697L710.418,234.697z"/>
							</g>
						</g>
					</g>
				</g>
				<g>
					<g>
						<g>
							<g>
								<path style="fill:#FFB587;" d="M708.946,232.664c0.335,0.397,0.288,0.982-0.111,1.313c-0.856,0.709-2.196,1.476-3.345,1.089
									c-0.985-0.332,0.894-1.771,2.054-2.652c0.407-0.309,0.987-0.242,1.317,0.149L708.946,232.664z"/>
							</g>
						</g>
					</g>
				</g>
				<g>
					<g>
						<g>
							<g>
								<path style="fill:#FFB587;" d="M708.372,230.794c0.39,0.523,0.235,1.258-0.333,1.58c-1.038,0.589-2.423,1.091-3.083,0.791
									c-0.706-0.321,0.705-1.595,1.786-2.543C707.229,230.195,707.984,230.274,708.372,230.794L708.372,230.794z"/>
							</g>
						</g>
					</g>
				</g>
				<g>
					<g>
						<g>
							<g>
								<path style="fill:#FFB587;" d="M699.65,236.081c1.111-2.889,3.823-6.06,4.435-5.388c0.612,0.671-1.315,2.971-1.148,3.999
									c0.22,1.353,0.373,2.596-1.279,4.805L699.65,236.081z"/>
							</g>
						</g>
					</g>
				</g>
			</g>
			<g>
				<g>
					<g>
						<g>
							<path style="fill:#47393D;" d="M608.773,295.329l0.041-0.833c-0.022-0.001-2.224-0.113-2.92-1.822l-0.787,0.316
								C606.007,295.2,608.661,295.324,608.773,295.329z"/>
						</g>
					</g>
				</g>
			</g>
			<g>
				<g>
					<g>
						<g>
							<g>
								<path style="fill:#47393D;" d="M691.919,439.319h37.666c0.045-0.446,0.136-1.823-0.151-3.267
									c-0.015-0.03-36.985,0.212-36.985,0.212L691.919,439.319z"/>
							</g>
						</g>
					</g>
				</g>
				<g>
					<g>
						<g>
							<g>
								<path style="fill:#F75C5C;" d="M692.449,436.264l36.97-0.242c-0.355-3.826-5.157-5.626-9.642-6.768
									c-0.302-0.076-0.597-0.144-0.892-0.219c-0.643-0.151-1.27-0.287-1.868-0.423c-0.31-0.068-0.612-0.136-0.9-0.197
									c-1.55-0.348-2.836-0.643-3.577-0.991c-0.666-0.318-1.475-0.779-2.178-1.202c-0.242-0.144-0.461-0.287-0.665-0.416
									c-0.666-0.416-1.142-0.733-1.142-0.733c-2.42,0.794-6.065,3.07-14.065-0.552l-0.242,1.391l-0.136,0.786L692.449,436.264z"/>
							</g>
						</g>
					</g>
				</g>
				<g>
					<g>
						<g>
							<g>
								<g>
									<g>
										<path style="fill:#47393D;" d="M718.885,429.035c0.56,1.293,0.62,2.684,0.62,2.7l0.756-0.03
											c-0.008-0.076-0.053-1.21-0.484-2.45C719.475,429.178,719.18,429.11,718.885,429.035z"/>
									</g>
								</g>
							</g>
						</g>
					</g>
					<g>
						<g>
							<g>
								<g>
									<g>
										<path style="fill:#47393D;" d="M716.117,428.414c0.62,1.339,0.681,2.821,0.681,2.836l0.756-0.023
											c0-0.083-0.053-1.316-0.537-2.616C716.707,428.543,716.405,428.475,716.117,428.414z"/>
									</g>
								</g>
							</g>
						</g>
					</g>
				</g>
				<g>
					<g>
						<g>
							<g>
								<g>
									<path style="fill:#47393D;" d="M694.112,426.698c3.297,1.641,6.118,2.208,8.454,2.208c4.318,0,6.957-1.951,7.796-2.685
										c-0.242-0.144-0.461-0.287-0.665-0.416c-1.406,1.202-6.556,4.635-15.449,0.106L694.112,426.698z"/>
								</g>
							</g>
						</g>
					</g>
				</g>
			</g>
			<g>
				<g>
					<g>
						<g>
							<g>
								<path style="fill:#47393D;" d="M589.398,494.48h37.666c0.045-0.446,0.136-1.822-0.151-3.267
									c-0.015-0.03-36.986,0.212-36.986,0.212L589.398,494.48z"/>
							</g>
						</g>
					</g>
				</g>
				<g>
					<g>
						<g>
							<g>
								<path style="fill:#F75C5C;" d="M589.928,491.425l36.97-0.242c-0.355-3.826-5.157-5.626-9.642-6.768
									c-0.302-0.076-0.597-0.144-0.892-0.219c-0.643-0.151-1.27-0.287-1.868-0.424c-0.31-0.068-0.612-0.136-0.9-0.197
									c-1.55-0.348-2.836-0.643-3.577-0.991c-0.665-0.318-1.475-0.779-2.178-1.202c-0.242-0.144-0.461-0.287-0.665-0.416
									c-0.666-0.416-1.142-0.734-1.142-0.734c-2.42,0.794-6.065,3.07-14.065-0.552l-0.242,1.391l-0.136,0.786L589.928,491.425z"/>
							</g>
						</g>
					</g>
				</g>
				<g>
					<g>
						<g>
							<g>
								<g>
									<g>
										<path style="fill:#47393D;" d="M616.364,484.196c0.56,1.293,0.62,2.684,0.62,2.7l0.756-0.03
											c-0.008-0.076-0.053-1.21-0.484-2.45C616.954,484.34,616.659,484.272,616.364,484.196z"/>
									</g>
								</g>
							</g>
						</g>
					</g>
					<g>
						<g>
							<g>
								<g>
									<g>
										<path style="fill:#47393D;" d="M613.596,483.576c0.62,1.339,0.681,2.821,0.681,2.836l0.756-0.023
											c0-0.083-0.053-1.316-0.537-2.617C614.186,483.704,613.884,483.636,613.596,483.576z"/>
									</g>
								</g>
							</g>
						</g>
					</g>
				</g>
				<g>
					<g>
						<g>
							<g>
								<g>
									<path style="fill:#47393D;" d="M591.591,481.859c3.297,1.641,6.118,2.208,8.454,2.208c4.318,0,6.957-1.951,7.796-2.685
										c-0.242-0.144-0.461-0.287-0.665-0.416c-1.407,1.202-6.556,4.635-15.449,0.106L591.591,481.859z"/>
								</g>
							</g>
						</g>
					</g>
				</g>
			</g>
			<g>
				<g>
					<g>
						<g>
							<g>
								<path style="fill:#47393D;" d="M623.091,474.635l-0.699-0.273c0.232-0.595,23.307-60.181,30.771-120.746l0.744,0.092
									C646.431,414.368,623.323,474.039,623.091,474.635z"/>
							</g>
						</g>
					</g>
				</g>
			</g>
			<g>
				<g>
					<g>
						<path style="fill:#47393D;" d="M658.148,234.409c-6.115,0-9.179-5.022-9.307-5.237l0.858-0.512
							c0.029,0.047,2.913,4.749,8.45,4.749c0.018,0,0.036,0,0.055,0l0.006,1C658.19,234.409,658.169,234.409,658.148,234.409z"/>
					</g>
				</g>
			</g>
			<g>
				<g>
					<g>
						<path style="fill:#47393D;" d="M644.527,218.869c-0.558,0-0.892-0.038-0.911-0.041l0.126-0.992
							c0.434,0.054,10.588,1.17,13.69-11.116l0.969,0.245C655.635,217.926,647.305,218.869,644.527,218.869z"/>
					</g>
				</g>
			</g>
			<g>
				<g>
					<g>
						<g>
							<g>
								
									<rect x="676.276" y="265.503" transform="matrix(0.9914 -0.1309 0.1309 0.9914 -32.5043 91.0849)" style="fill:#47393D;" width="0.751" height="54.615"/>
							</g>
						</g>
					</g>
				</g>
			</g>
			<g>
				<g>
					<g>
						<path style="fill:#47393D;" d="M615.882,284.947c-10.077,0-21.072-9.348-21.575-9.781l0.488-0.568
							c0.133,0.113,13.309,11.312,23.652,9.369l0.139,0.737C617.697,284.871,616.793,284.947,615.882,284.947z"/>
					</g>
				</g>
			</g>
			<g>
				<g>
					<g>
						<path style="fill:#47393D;" d="M675.182,277.819l-0.695-0.28c0.182-0.452,4.532-11.098,11.395-13.789l0.273,0.698
							C679.595,267.02,675.226,277.711,675.182,277.819z"/>
					</g>
				</g>
			</g>
		</g>
		<g>
			<path style="fill:#E89477;" d="M845.126,384.151v77.569c-9.14,18.171-17.096,29.918-18.745,32.305
				c-0.219,0.31-0.328,0.456-0.328,0.456H682.488v-45.537c0-5.213,4.228-9.441,9.441-9.441h35.577c5.213,0,9.432-4.219,9.432-9.432
				v-36.479c0-5.213,4.228-9.441,9.441-9.441H845.126z"/>
		</g>
		<g>
			<path style="fill:#47393D;" d="M675.616,413.843l-0.727-0.189l12.521-48.094h0.29c0.033,0,3.322-0.025,4.475-1.808l0.629,0.408
				c-1.163,1.798-3.904,2.092-4.812,2.141L675.616,413.843z"/>
		</g>
		<g>
			
				<rect x="650.497" y="348.954" transform="matrix(0.3934 -0.9194 0.9194 0.3934 76.4736 814.5621)" style="fill:#47393D;" width="10.042" height="0.75"/>
		</g>
		<g>
			<path style="fill:#47393D;" d="M689.979,473.242h-0.75V456.06c0-5.412,4.402-9.814,9.814-9.814h35.571
				c4.998,0,9.065-4.066,9.065-9.064v-36.474c0-5.411,4.402-9.814,9.814-9.814h17.498v0.75h-17.498
				c-4.998,0-9.064,4.065-9.064,9.064v36.474c0,5.412-4.402,9.814-9.815,9.814h-35.571c-4.998,0-9.064,4.066-9.064,9.064V473.242z"
				/>
		</g>
		<g>
			<rect x="682.117" y="454.768" style="fill:#47393D;" width="0.75" height="40.101"/>
		</g>
		<g>
			<g>
				<g>
					<path style="fill:#7178D5;" d="M879.914,349.117c-0.38,7.51-1.15,14.9-2.23,22.11c-5.36,36.25-18.36,68.21-29.56,90.49
						c-9.14,18.17-17.09,29.92-18.74,32.31c-0.22,0.31-0.33,0.45-0.33,0.45h-0.13l-51.52,0.47c-0.24-0.15-0.47-0.31-0.71-0.47
						c-8.81-5.86-16.77-13.61-23.3-22.96c-6.19-8.84-11.05-22.52-5.02-31.54c4-5.99,11.04-6.97,17.35-7.08
						c2.67-0.04,5.36-0.01,8.03,0.1c7.56,0.31,15.11,1.23,22.57,2.77c0.01,0,0.02,0,0.04,0.01c2.76,0.57,5.5,1.21,8.23,1.95
						c-0.22-0.22-0.45-0.45-0.68-0.7c-0.31-0.34-0.62-0.71-0.94-1.11c-15.16-18.77-34.89-93.24-6.84-99.07
						c5.81-1.21,12.21,1.38,17.67,6.01c6.06,5.14,10.93,12.81,12.54,20.61c0.04-0.64,0.12-1.28,0.21-1.89c0,0,0.01-0.01,0-0.01
						c1.45-9.12,8.84-16.4,16.43-15.76c8.1,0.71,14.98,10.36,14.48,20.33c1.93-4.32,4.57-8.29,7.73-11.31
						c0.02-0.02,0.05-0.04,0.07-0.06c1.61-1.54,3.35-2.82,5.2-3.78c1.68-0.87,3.44-1.48,5.27-1.77
						C877.204,348.987,878.604,348.957,879.914,349.117z"/>
				</g>
			</g>
			<g>
				<g>
					<path style="fill:#47393D;" d="M836.746,447.979c-23.097-13.383-62.611-14.264-63.007-14.272l0.013-0.923
						c0.399,0.007,40.097,0.892,63.364,14.373L836.746,447.979z"/>
				</g>
			</g>
			<g>
				<g>
					<path style="fill:#47393D;" d="M853.47,395.794l-0.813-0.013c0.005-0.356,0.649-35.649,17.706-45.029l0.354,0.831
						C854.112,360.715,853.475,395.445,853.47,395.794z"/>
				</g>
			</g>
			<g>
				<g>
					<path style="fill:#47393D;" d="M836.078,410.889c-4.697-55.578-22.321-67.468-22.499-67.581l0.398-0.805
						c0.739,0.47,18.166,12.148,22.911,68.298L836.078,410.889z"/>
				</g>
			</g>
			<g>
				<g>
					<path style="fill:#47393D;" d="M856.607,407.55l-0.813-0.022c0.025-1.16,0.665-28.523,6.347-37.713l0.665,0.53
						C857.266,379.308,856.612,407.269,856.607,407.55z"/>
				</g>
			</g>
			<g>
				<g>
					<path style="fill:#47393D;" d="M812.485,443.61c-25.62-7.24-48.332-4.789-48.557-4.764l-0.081-0.918
						c0.229-0.026,23.072-2.494,48.834,4.785L812.485,443.61z"/>
				</g>
			</g>
			<g>
				<g>
					<path style="fill:#47393D;" d="M781.36,492.064c-11.026-5.129-21.274-19.825-21.377-19.973l0.64-0.57
						c0.101,0.146,10.22,14.653,21.045,19.688L781.36,492.064z"/>
				</g>
			</g>
		</g>
		<g>
			<path style="fill:#47393D;" d="M553.857,406.411c-0.008-1.425-0.024-34.955,15.134-39.951l0.234,0.713
				c-14.645,4.826-14.62,38.891-14.618,39.234L553.857,406.411z"/>
		</g>
		<g>
			<path style="fill:#47393D;" d="M575.003,438.992l-0.736-0.139c2.733-14.627,14.779-61.381,33.633-83.592l0.572,0.484
				C589.724,377.834,577.727,424.415,575.003,438.992z"/>
		</g>
		<g>
			<path style="fill:#47393D;" d="M683.466,409.496l-0.734-0.148c0.223-1.102,5.521-27.054,10.615-34.186l0.609,0.436
				C688.955,382.6,683.521,409.229,683.466,409.496z"/>
		</g>
		<g>
			<path style="fill:#47393D;" d="M556.213,425.069c-0.502-25.607-10.212-39.142-10.31-39.275l0.604-0.443
				c0.1,0.135,9.949,13.841,10.456,39.703L556.213,425.069z"/>
		</g>
		<g>
			<path style="fill:#47393D;" d="M568.537,458.422h-0.75c0-0.212,0.088-21.414,7.683-42.341l0.705,0.256
				C568.624,437.141,568.537,458.212,568.537,458.422z"/>
		</g>
		<g>
			<path style="fill:#47393D;" d="M488.06,468.212c-6.5-6.843-6.245-18.826-6.23-19.333l0.75,0.022
				c-0.003,0.121-0.259,12.181,6.024,18.796L488.06,468.212z"/>
		</g>
		<g>
			<path style="fill:#47393D;" d="M538.664,460.154l-0.747-0.06c0.038-0.47,3.788-47.244,0.512-73.455l0.744-0.094
				C542.458,412.833,538.702,459.685,538.664,460.154z"/>
		</g>
		<g>
			<path style="fill:#47393D;" d="M637.352,325.182c-14.267,0-21.646-4.938-21.743-5.004l0.426-0.617
				c0.125,0.086,12.777,8.521,37.15,3.006l0.166,0.733C647.308,324.664,641.969,325.182,637.352,325.182z"/>
		</g>
		<g>
			<path style="fill:#47393D;" d="M619.084,288.282l-0.736-0.146c0.112-0.569,2.851-14.004,11.222-19.643l0.42,0.622
				C621.876,274.58,619.11,288.146,619.084,288.282z"/>
		</g>
	</g>
</g>
</svg>
